# xmcd
#
# Track frame offsets: 
#        182
#        12212
#        28690
#        58755
#        72895
#        91082
#        107322
#        123637
#        139645
#        154195
#        169925
#        187425
#
# Disc length: 2670 seconds
#
# Revision: 0
# Processed by: cddbd v1.5PL3 Copyright (c) Steve Scherf et al.
# Submitted via: ExactAudioCopy v0.95a5
#
DISCID=a10a6c0c
DTITLE=Marion James and the Hypnotics - Titre inconnu
DYEAR=1994
DGENRE=Blues
TTITLE0=That's My Man
TTITLE1=He Put the Love on Me
TTITLE2=He Left Me Cryin'
TTITLE3=Hands Off
TTITLE4=Mean Time Man
TTITLE5=Every Night in the Week
TTITLE6=Frying Pan
TTITLE7=For You My Love (Birdsong)
TTITLE8=Mean and Evil
TTITLE9=Man Size Job
TTITLE10=Rainy Ol' Day
TTITLE11=Smokin' Hot
EXTD=
EXTT0=
EXTT1=
EXTT2=
EXTT3=
EXTT4=
EXTT5=
EXTT6=
EXTT7=
EXTT8=
EXTT9=
EXTT10=
EXTT11=
PLAYORDER=
